# xmcd CD database file
#
# Track frame offsets:
#	150
#	16782
#	37130
#	53137
#	72967
#	90747
#	108095
#	121742
#	140007
#	154910
#	171690
#	189607
#
# Disc length: 2795 seconds
#
# Revision: 1
# Processed by: cddbd v1.4PL0 Copyright (c) Steve Scherf et al.
# Submitted via: CDex 1.51
#
DISCID=a60ae90c
DTITLE=鄭秀文 - 很愛很愛
DYEAR=1999
DGENRE=Other
TTITLE0=發熱發亮
TTITLE1=插曲
TTITLE2=宿命主義
TTITLE3=很愛很愛你
TTITLE4=月亮星座
TTITLE5=旋風
TTITLE6=另類男女
TTITLE7=兩個只能愛一個
TTITLE8=Touch
TTITLE9=甜
TTITLE10=不可多得
TTITLE11=插曲 ( 國語版 )
EXTD=YEAR: 1999
EXTT0=
EXTT1=
EXTT2=
EXTT3=
EXTT4=
EXTT5=
EXTT6=
EXTT7=
EXTT8=
EXTT9=
EXTT10=
EXTT11=
PLAYORDER=
